<?xml version="1.0" encoding="iso-8859-1"?>
<!-- Uploaded to: SVG Repo, www.svgrepo.com, Generator: SVG Repo Mixer Tools -->
<svg fill="#000000" version="1.1" id="Capa_1" xmlns="http://www.w3.org/2000/svg" xmlns:xlink="http://www.w3.org/1999/xlink" 
	 viewBox="0 0 60 60" xml:space="preserve">
<g>
	<g>
		<path d="M59,0h-4c-0.6,0-1,0.4-1,1v10h-8V6h-2v5H34V6h-2v5H20V9c0-1.2-0.8-2-2-2H6V1c0-0.6-0.4-1-1-1H1C0.4,0,0,0.4,0,1v58
			c0,0.6,0.4,1,1,1h4c0.6,0,1-0.4,1-1v-7h26v8h2v-5h10v5h2v-8h8v7c0,0.6,0.4,1,1,1h4c0.6,0,1-0.4,1-1V1C60,0.4,59.6,0,59,0z M6,40
			h12v2H6V40z M18,38H6V21h26v21H20v-2C20,38.8,19.2,38,18,38z M44,45H34v-1h10V45z M34,42v-6h10v6H34z M44,34H34v-1h10V34z M44,31
			H34v-7h10V31z M44,22H34v-1h10V22z M44,19H34v-3h10V19z M34,47h10v3H34V47z M46,21h8v21h-8V21z M54,13v6h-8v-6H54z M44,13v1H34v-1
			H44z M32,13v6H6v-6h12H32z M18,9v2H6V9H18z M4,58H2V2h2v10v8v23v8V58z M6,50v-6h12h14v6H6z M34,53v-1h10v1H34z M46,50v-6h8v6H46z
			 M58,58h-2v-7v-8V20v-8V2h2V58z"/>
		<rect x="8" y="15" width="2" height="2"/>
		<rect x="12" y="15" width="2" height="2"/>
		<rect x="50" y="15" width="2" height="2"/>
		<rect x="8" y="46" width="2" height="2"/>
		<rect x="12" y="46" width="2" height="2"/>
		<rect x="50" y="46" width="2" height="2"/>
	</g>
</g>
</svg>